<?xml version="1.0" encoding="UTF-8" standalone="no" ?>
<!DOCTYPE svg PUBLIC "-//W3C//DTD SVG 1.1//EN" "http://www.w3.org/Graphics/SVG/1.1/DTD/svg11.dtd">
<svg xmlns="http://www.w3.org/2000/svg" xmlns:xlink="http://www.w3.org/1999/xlink" version="1.1" width="640" height="640" viewBox="0 0 640 640" xml:space="preserve">
<desc>Created with Fabric.js 4.6.0</desc>
<defs>
</defs>
<g transform="matrix(1 0 0 1 320 324.78)" id="8FT0vwglD1aSaRHSaASRn"  >
<path style="stroke: rgb(78,64,103); stroke-width: 0; stroke-dasharray: none; stroke-linecap: butt; stroke-dashoffset: 0; stroke-linejoin: miter; stroke-miterlimit: 4; fill: rgb(187,126,255); fill-rule: nonzero; opacity: 1;" vector-effect="non-scaling-stroke"  transform=" translate(-326.67, -326.67)" d="M 0 0 L 653.33333 0 L 653.33333 653.33333 L 0 653.33333 z" stroke-linecap="round" />
</g>
<g transform="matrix(1.18 0 0 1.18 388.38 442.68)" id="h1kXGfkFhZ69Ly1_AREeb"  >
<g style="" vector-effect="non-scaling-stroke"   >
		<g transform="matrix(1.17 0 0 1.41 145.12 -13.07)" id="vZ1q58faDFyEYuqTJmRPL"  >
<path style="stroke: rgb(106,21,101); stroke-width: 0; stroke-dasharray: none; stroke-linecap: butt; stroke-dashoffset: 0; stroke-linejoin: miter; stroke-miterlimit: 4; fill: rgb(46,46,46); fill-rule: nonzero; opacity: 1;" vector-effect="non-scaling-stroke"  transform=" translate(0, 0)" d="M -14.93849 -105.00879 L 14.93848 -105.00879 L 14.93848 105.00879 L -14.93849 105.00879 z" stroke-linecap="round" />
</g>
		<g transform="matrix(0.99 1 -1.39 1.4 -0.21 0)" id="EFtGMb5OeTSu1XwkWfuEN"  >
<path style="stroke: rgb(106,21,101); stroke-width: 0; stroke-dasharray: none; stroke-linecap: butt; stroke-dashoffset: 0; stroke-linejoin: miter; stroke-miterlimit: 4; fill: rgb(46,46,46); fill-rule: nonzero; opacity: 1;" vector-effect="non-scaling-stroke"  transform=" translate(0, 0)" d="M -16.38065 -103.90788 L 13.49632 -103.90788 L 16.38064 85.26471999999998 L 0.3178599999999996 96.71526999999998 L -9.77189 103.90787999999998 z" stroke-linecap="round" />
</g>
		<g transform="matrix(1.4 0 0 1.41 66.96 13.53)" id="ofwbBk64oxSXrRigfLPHg"  >
<path style="stroke: rgb(181,95,26); stroke-width: 0; stroke-dasharray: none; stroke-linecap: butt; stroke-dashoffset: 0; stroke-linejoin: miter; stroke-miterlimit: 4; fill: rgb(46,46,46); fill-rule: nonzero; opacity: 1;" vector-effect="non-scaling-stroke"  transform=" translate(0, 0)" d="M -53.81356 -13.1356 L 53.81355 -13.1356 L 53.81355 13.13559 L -53.81356 13.13559 z" stroke-linecap="round" />
</g>
</g>
</g>
</svg>